<svg width="303" height="334" viewBox="0 0 303 334" fill="none" xmlns="http://www.w3.org/2000/svg">
<rect x="158.779" y="12.197" width="99.7924" height="99.7924" fill="#FCBD1A"/>
<path fill-rule="evenodd" clip-rule="evenodd" d="M205.831 2.81464L128.842 12.6653L141.507 111.651L240.492 98.9857L227.827 0.000169734L227.827 0.000186195L230.642 21.9968L205.831 2.81464Z" fill="#90DF0E"/>
<path fill-rule="evenodd" clip-rule="evenodd" d="M227.827 -1.62658e-05L205.83 2.81445L208.645 24.8112L230.641 21.9968L230.641 21.9966L205.83 2.81454L227.827 0.000101004L227.827 -1.62658e-05Z" fill="#C0FC5D"/>
<g clip-path="url(#clip0_1319_1917)">
<path d="M0 37.8438C0 34.8994 2.38694 32.5125 5.33138 32.5125H271.012C288.678 32.5125 303 46.8341 303 64.5007V465.594C303 483.261 288.678 497.582 271.012 497.582H5.33139C2.38695 497.582 0 495.195 0 492.251V37.8438Z" fill="#1E252F"/>
<g filter="url(#filter0_ii_1319_1917)">
<rect x="8.45605" y="32.5125" width="7.04651" height="466.479" fill="#252525" fill-opacity="0.01"/>
</g>
<path d="M104.458 126.269H94.8365V99.1275H104.537C107.268 99.1275 109.618 99.6708 111.588 100.758C113.558 101.835 115.073 103.386 116.134 105.409C117.203 107.433 117.737 109.853 117.737 112.672C117.737 115.499 117.203 117.929 116.134 119.961C115.073 121.993 113.549 123.552 111.561 124.639C109.582 125.726 107.215 126.269 104.458 126.269ZM100.575 121.352H104.219C105.916 121.352 107.343 121.052 108.5 120.451C109.666 119.841 110.541 118.901 111.124 117.628C111.716 116.347 112.012 114.695 112.012 112.672C112.012 110.666 111.716 109.027 111.124 107.755C110.541 106.483 109.671 105.546 108.513 104.945C107.356 104.345 105.929 104.044 104.233 104.044H100.575V121.352ZM127.959 126.269V99.1275H146.248V103.859H133.698V110.326H145.307V115.057H133.698V121.538H146.301V126.269H127.959ZM171.505 106.933C171.399 105.864 170.944 105.034 170.14 104.442C169.336 103.85 168.245 103.554 166.867 103.554C165.93 103.554 165.139 103.686 164.494 103.951C163.849 104.208 163.355 104.566 163.01 105.025C162.674 105.484 162.506 106.006 162.506 106.589C162.489 107.075 162.59 107.499 162.811 107.861C163.041 108.223 163.355 108.537 163.752 108.802C164.15 109.058 164.609 109.283 165.13 109.478C165.652 109.663 166.208 109.822 166.8 109.955L169.239 110.538C170.423 110.803 171.509 111.157 172.499 111.598C173.489 112.04 174.346 112.583 175.07 113.228C175.795 113.873 176.356 114.633 176.753 115.508C177.16 116.383 177.367 117.385 177.376 118.516C177.367 120.177 176.943 121.617 176.104 122.837C175.273 124.047 174.072 124.988 172.499 125.659C170.935 126.322 169.049 126.653 166.84 126.653C164.649 126.653 162.741 126.318 161.115 125.646C159.498 124.975 158.235 123.981 157.325 122.664C156.423 121.339 155.951 119.7 155.907 117.748H161.459C161.521 118.658 161.782 119.417 162.241 120.027C162.71 120.628 163.333 121.083 164.11 121.392C164.896 121.692 165.784 121.843 166.774 121.843C167.746 121.843 168.589 121.701 169.305 121.419C170.03 121.136 170.591 120.743 170.988 120.239C171.386 119.735 171.585 119.157 171.585 118.503C171.585 117.893 171.403 117.381 171.041 116.966C170.688 116.55 170.167 116.197 169.477 115.905C168.797 115.614 167.962 115.349 166.973 115.11L164.017 114.368C161.729 113.811 159.922 112.941 158.597 111.757C157.272 110.573 156.613 108.979 156.622 106.973C156.613 105.33 157.051 103.894 157.934 102.666C158.827 101.438 160.05 100.479 161.605 99.7901C163.16 99.101 164.927 98.7564 166.906 98.7564C168.921 98.7564 170.679 99.101 172.181 99.7901C173.692 100.479 174.867 101.438 175.706 102.666C176.545 103.894 176.978 105.316 177.005 106.933H171.505ZM187.207 126.269V99.1275H192.945V111.095H193.303L203.07 99.1275H209.949L199.877 111.28L210.068 126.269H203.203L195.768 115.11L192.945 118.556V126.269H187.207ZM100.831 144.127V171.269H95.8748L84.0666 154.186H83.8678V171.269H78.1294V144.127H83.1654L94.8808 161.197H95.1194V144.127H100.831ZM136.485 157.698C136.485 160.658 135.924 163.176 134.802 165.252C133.689 167.329 132.169 168.914 130.243 170.01C128.326 171.097 126.17 171.64 123.776 171.64C121.364 171.64 119.199 171.092 117.282 169.997C115.365 168.901 113.85 167.315 112.736 165.239C111.623 163.163 111.066 160.649 111.066 157.698C111.066 154.738 111.623 152.22 112.736 150.144C113.85 148.068 115.365 146.486 117.282 145.4C119.199 144.304 121.364 143.756 123.776 143.756C126.17 143.756 128.326 144.304 130.243 145.4C132.169 146.486 133.689 148.068 134.802 150.144C135.924 152.22 136.485 154.738 136.485 157.698ZM130.667 157.698C130.667 155.781 130.38 154.164 129.806 152.848C129.24 151.531 128.441 150.533 127.407 149.853C126.373 149.172 125.163 148.832 123.776 148.832C122.389 148.832 121.178 149.172 120.145 149.853C119.111 150.533 118.307 151.531 117.733 152.848C117.167 154.164 116.884 155.781 116.884 157.698C116.884 159.615 117.167 161.232 117.733 162.549C118.307 163.865 119.111 164.864 120.145 165.544C121.178 166.224 122.389 166.564 123.776 166.564C125.163 166.564 126.373 166.224 127.407 165.544C128.441 164.864 129.24 163.865 129.806 162.549C130.38 161.232 130.667 159.615 130.667 157.698ZM144.434 148.859V144.127H166.725V148.859H158.416V171.269H152.744V148.859H144.434ZM176.368 171.269V144.127H194.656V148.859H182.106V155.326H193.715V160.057H182.106V166.538H194.709V171.269H176.368ZM219.913 151.933C219.807 150.864 219.352 150.034 218.548 149.442C217.744 148.85 216.653 148.554 215.275 148.554C214.338 148.554 213.548 148.686 212.903 148.951C212.258 149.208 211.763 149.566 211.418 150.025C211.083 150.484 210.915 151.006 210.915 151.589C210.897 152.075 210.999 152.499 211.22 152.861C211.449 153.223 211.763 153.537 212.161 153.802C212.558 154.058 213.018 154.283 213.539 154.478C214.06 154.663 214.617 154.822 215.209 154.955L217.647 155.538C218.831 155.803 219.918 156.157 220.907 156.598C221.897 157.04 222.754 157.583 223.478 158.228C224.203 158.873 224.764 159.633 225.162 160.508C225.568 161.383 225.776 162.385 225.784 163.516C225.776 165.177 225.351 166.617 224.512 167.837C223.682 169.047 222.48 169.988 220.907 170.659C219.344 171.322 217.457 171.653 215.248 171.653C213.057 171.653 211.149 171.318 209.523 170.646C207.906 169.975 206.643 168.981 205.733 167.664C204.832 166.339 204.359 164.7 204.315 162.748H209.868C209.93 163.658 210.19 164.417 210.65 165.027C211.118 165.628 211.741 166.083 212.518 166.392C213.305 166.692 214.193 166.843 215.182 166.843C216.154 166.843 216.998 166.701 217.713 166.419C218.438 166.136 218.999 165.743 219.397 165.239C219.794 164.735 219.993 164.157 219.993 163.503C219.993 162.893 219.812 162.381 219.45 161.966C219.096 161.55 218.575 161.197 217.886 160.905C217.205 160.614 216.371 160.349 215.381 160.11L212.426 159.368C210.137 158.811 208.331 157.941 207.005 156.757C205.68 155.573 205.022 153.979 205.031 151.973C205.022 150.33 205.459 148.894 206.343 147.666C207.235 146.438 208.459 145.479 210.014 144.79C211.569 144.101 213.336 143.756 215.315 143.756C217.329 143.756 219.087 144.101 220.589 144.79C222.1 145.479 223.275 146.438 224.115 147.666C224.954 148.894 225.387 150.316 225.413 151.933H219.913Z" fill="white" fill-opacity="0.49"/>
<g filter="url(#filter1_d_1319_1917)">
<rect x="-13.3286" y="195.12" width="339.431" height="107.516" fill="#BE9662"/>
<rect x="-12.8843" y="195.564" width="338.543" height="106.628" stroke="#D8B790" stroke-width="0.888563"/>
<path d="M95.3421 211.727C95.309 211.416 95.1693 211.175 94.9231 211.002C94.6792 210.829 94.362 210.743 93.9714 210.743C93.6967 210.743 93.4612 210.784 93.2647 210.867C93.0682 210.95 92.9179 211.062 92.8137 211.205C92.7095 211.347 92.6563 211.509 92.6539 211.691C92.6539 211.843 92.6882 211.974 92.7569 212.085C92.8279 212.196 92.9238 212.291 93.0445 212.369C93.1653 212.445 93.299 212.509 93.4458 212.561C93.5926 212.613 93.7405 212.657 93.8897 212.692L94.5715 212.863C94.8461 212.927 95.1101 213.013 95.3634 213.122C95.6191 213.231 95.8476 213.368 96.0488 213.534C96.2524 213.7 96.4134 213.9 96.5317 214.134C96.6501 214.369 96.7093 214.643 96.7093 214.958C96.7093 215.384 96.6004 215.759 96.3826 216.084C96.1648 216.406 95.8499 216.658 95.438 216.84C95.0284 217.02 94.5324 217.11 93.9501 217.11C93.3842 217.11 92.893 217.022 92.4763 216.847C92.062 216.672 91.7377 216.416 91.5033 216.08C91.2713 215.744 91.1458 215.335 91.1269 214.852H92.4231C92.442 215.105 92.5201 215.316 92.6574 215.484C92.7948 215.652 92.9735 215.777 93.1937 215.86C93.4162 215.943 93.6648 215.984 93.9394 215.984C94.2259 215.984 94.4768 215.942 94.6922 215.857C94.9101 215.769 95.0805 215.648 95.2036 215.494C95.3267 215.338 95.3895 215.156 95.3918 214.947C95.3895 214.758 95.3338 214.602 95.2249 214.479C95.116 214.353 94.9633 214.249 94.7668 214.166C94.5727 214.081 94.3454 214.005 94.085 213.939L93.2576 213.726C92.6586 213.572 92.1851 213.339 91.8371 213.026C91.4915 212.711 91.3187 212.294 91.3187 211.773C91.3187 211.344 91.4347 210.969 91.6667 210.647C91.9011 210.325 92.2195 210.075 92.6219 209.898C93.0244 209.718 93.4801 209.628 93.9891 209.628C94.5052 209.628 94.9574 209.718 95.3457 209.898C95.7363 210.075 96.0429 210.323 96.2654 210.64C96.4879 210.955 96.6028 211.317 96.6099 211.727H95.3421ZM97.8838 217V209.727H102.614V210.832H99.2013V212.806H102.369V213.911H99.2013V215.896H102.642V217H97.8838ZM103.638 210.832V209.727H109.441V210.832H107.193V217H105.886V210.832H103.638ZM119.539 213.364C119.539 214.147 119.392 214.818 119.098 215.377C118.807 215.933 118.409 216.36 117.905 216.656C117.403 216.951 116.834 217.099 116.197 217.099C115.56 217.099 114.99 216.951 114.485 216.656C113.984 216.357 113.586 215.93 113.292 215.374C113.001 214.815 112.855 214.145 112.855 213.364C112.855 212.58 113.001 211.91 113.292 211.354C113.586 210.795 113.984 210.368 114.485 210.072C114.99 209.776 115.56 209.628 116.197 209.628C116.834 209.628 117.403 209.776 117.905 210.072C118.409 210.368 118.807 210.795 119.098 211.354C119.392 211.91 119.539 212.58 119.539 213.364ZM118.214 213.364C118.214 212.812 118.128 212.347 117.955 211.968C117.784 211.587 117.548 211.299 117.245 211.105C116.942 210.909 116.592 210.81 116.197 210.81C115.802 210.81 115.452 210.909 115.149 211.105C114.846 211.299 114.609 211.587 114.436 211.968C114.265 212.347 114.18 212.812 114.18 213.364C114.18 213.915 114.265 214.382 114.436 214.763C114.609 215.142 114.846 215.429 115.149 215.626C115.452 215.82 115.802 215.917 116.197 215.917C116.592 215.917 116.942 215.82 117.245 215.626C117.548 215.429 117.784 215.142 117.955 214.763C118.128 214.382 118.214 213.915 118.214 213.364ZM120.784 217V209.727H125.443V210.832H122.102V212.806H125.124V213.911H122.102V217H120.784ZM128.804 210.832V209.727H134.607V210.832H132.359V217H131.052V210.832H128.804ZM137.256 217L135.204 209.727H136.621L137.931 215.072H137.998L139.398 209.727H140.687L142.089 215.075H142.153L143.464 209.727H144.88L142.828 217H141.528L140.072 211.897H140.015L138.556 217H137.256ZM151.902 213.364C151.902 214.147 151.755 214.818 151.462 215.377C151.17 215.933 150.773 216.36 150.268 216.656C149.767 216.951 149.197 217.099 148.56 217.099C147.923 217.099 147.353 216.951 146.849 216.656C146.347 216.357 145.949 215.93 145.655 215.374C145.364 214.815 145.219 214.145 145.219 213.364C145.219 212.58 145.364 211.91 145.655 211.354C145.949 210.795 146.347 210.368 146.849 210.072C147.353 209.776 147.923 209.628 148.56 209.628C149.197 209.628 149.767 209.776 150.268 210.072C150.773 210.368 151.17 210.795 151.462 211.354C151.755 211.91 151.902 212.58 151.902 213.364ZM150.577 213.364C150.577 212.812 150.491 212.347 150.318 211.968C150.148 211.587 149.911 211.299 149.608 211.105C149.305 210.909 148.956 210.81 148.56 210.81C148.165 210.81 147.816 210.909 147.513 211.105C147.21 211.299 146.972 211.587 146.799 211.968C146.629 212.347 146.543 212.812 146.543 213.364C146.543 213.915 146.629 214.382 146.799 214.763C146.972 215.142 147.21 215.429 147.513 215.626C147.816 215.82 148.165 215.917 148.56 215.917C148.956 215.917 149.305 215.82 149.608 215.626C149.911 215.429 150.148 215.142 150.318 214.763C150.491 214.382 150.577 213.915 150.577 213.364ZM155.628 217V209.727H158.355C158.914 209.727 159.383 209.831 159.761 210.04C160.143 210.248 160.43 210.535 160.624 210.899C160.821 211.261 160.919 211.673 160.919 212.135C160.919 212.601 160.821 213.016 160.624 213.378C160.428 213.74 160.138 214.025 159.754 214.234C159.371 214.44 158.899 214.543 158.337 214.543H156.53V213.46H158.16C158.487 213.46 158.754 213.403 158.962 213.289C159.171 213.175 159.325 213.019 159.424 212.82C159.526 212.621 159.577 212.393 159.577 212.135C159.577 211.877 159.526 211.65 159.424 211.453C159.325 211.257 159.17 211.104 158.959 210.995C158.751 210.884 158.482 210.828 158.153 210.828H156.945V217H155.628ZM163.381 209.727V217H162.064V209.727H163.381ZM164.488 210.832V209.727H170.291V210.832H168.043V217H166.736V210.832H164.488ZM177.312 212.181H175.984C175.946 211.963 175.876 211.77 175.774 211.602C175.673 211.432 175.546 211.287 175.394 211.169C175.243 211.051 175.07 210.962 174.876 210.903C174.684 210.841 174.477 210.81 174.255 210.81C173.859 210.81 173.509 210.91 173.203 211.109C172.898 211.305 172.659 211.594 172.486 211.975C172.313 212.354 172.227 212.817 172.227 213.364C172.227 213.92 172.313 214.389 172.486 214.77C172.661 215.149 172.9 215.435 173.203 215.629C173.509 215.821 173.858 215.917 174.251 215.917C174.469 215.917 174.672 215.888 174.862 215.832C175.054 215.772 175.225 215.686 175.377 215.572C175.531 215.459 175.66 215.319 175.764 215.153C175.87 214.988 175.944 214.798 175.984 214.585L177.312 214.592C177.262 214.938 177.155 215.262 176.989 215.565C176.826 215.868 176.611 216.136 176.346 216.368C176.081 216.598 175.771 216.777 175.416 216.908C175.061 217.036 174.667 217.099 174.233 217.099C173.594 217.099 173.024 216.951 172.522 216.656C172.02 216.36 171.624 215.932 171.336 215.374C171.047 214.815 170.902 214.145 170.902 213.364C170.902 212.58 171.048 211.91 171.339 211.354C171.63 210.795 172.027 210.368 172.529 210.072C173.031 209.776 173.599 209.628 174.233 209.628C174.638 209.628 175.015 209.685 175.363 209.798C175.711 209.912 176.021 210.079 176.293 210.299C176.565 210.517 176.789 210.784 176.964 211.102C177.142 211.416 177.258 211.776 177.312 212.181ZM178.519 217V209.727H179.836V212.806H183.206V209.727H184.527V217H183.206V213.911H179.836V217H178.519ZM188.44 217V209.727H191.225C191.75 209.727 192.187 209.81 192.535 209.976C192.885 210.139 193.147 210.363 193.32 210.647C193.495 210.931 193.583 211.253 193.583 211.613C193.583 211.909 193.526 212.162 193.412 212.373C193.298 212.581 193.146 212.75 192.954 212.881C192.762 213.011 192.548 213.104 192.311 213.161V213.232C192.569 213.246 192.817 213.326 193.053 213.47C193.293 213.612 193.488 213.813 193.639 214.074C193.791 214.334 193.867 214.649 193.867 215.018C193.867 215.395 193.775 215.733 193.593 216.034C193.411 216.332 193.136 216.568 192.769 216.741C192.402 216.914 191.941 217 191.384 217H188.44ZM189.758 215.899H191.175C191.653 215.899 191.998 215.808 192.208 215.626C192.421 215.441 192.528 215.204 192.528 214.915C192.528 214.7 192.475 214.506 192.368 214.333C192.261 214.158 192.11 214.021 191.913 213.921C191.717 213.819 191.483 213.768 191.21 213.768H189.758V215.899ZM189.758 212.82H191.061C191.288 212.82 191.493 212.779 191.676 212.696C191.858 212.611 192.001 212.491 192.105 212.337C192.212 212.181 192.265 211.996 192.265 211.783C192.265 211.502 192.166 211.27 191.967 211.087C191.77 210.905 191.478 210.814 191.09 210.814H189.758V212.82ZM195.013 217V209.727H196.33V215.896H199.533V217H195.013ZM201.884 217H200.478L203.038 209.727H204.665L207.229 217H205.822L203.88 211.219H203.823L201.884 217ZM201.93 214.148H205.766V215.207H201.93V214.148ZM214.07 212.181H212.742C212.704 211.963 212.634 211.77 212.532 211.602C212.43 211.432 212.304 211.287 212.152 211.169C212.001 211.051 211.828 210.962 211.634 210.903C211.442 210.841 211.235 210.81 211.012 210.81C210.617 210.81 210.267 210.91 209.961 211.109C209.656 211.305 209.417 211.594 209.244 211.975C209.071 212.354 208.985 212.817 208.985 213.364C208.985 213.92 209.071 214.389 209.244 214.77C209.419 215.149 209.658 215.435 209.961 215.629C210.267 215.821 210.616 215.917 211.009 215.917C211.227 215.917 211.43 215.888 211.62 215.832C211.811 215.772 211.983 215.686 212.135 215.572C212.288 215.459 212.417 215.319 212.522 215.153C212.628 214.988 212.702 214.798 212.742 214.585L214.07 214.592C214.02 214.938 213.912 215.262 213.747 215.565C213.583 215.868 213.369 216.136 213.104 216.368C212.839 216.598 212.529 216.777 212.174 216.908C211.818 217.036 211.424 217.099 210.991 217.099C210.352 217.099 209.781 216.951 209.279 216.656C208.778 216.36 208.382 215.932 208.093 215.374C207.805 214.815 207.66 214.145 207.66 213.364C207.66 212.58 207.806 211.91 208.097 211.354C208.388 210.795 208.785 210.368 209.287 210.072C209.788 209.776 210.357 209.628 210.991 209.628C211.396 209.628 211.772 209.685 212.12 209.798C212.468 209.912 212.778 210.079 213.051 210.299C213.323 210.517 213.547 210.784 213.722 211.102C213.899 211.416 214.015 211.776 214.07 212.181ZM215.276 217V209.727H216.594V213.069H216.683L219.52 209.727H221.129L218.316 212.991L221.154 217H219.57L217.4 213.882L216.594 214.834V217H215.276Z" fill="black" fill-opacity="0.71"/>
<path d="M79.1842 242H72.4683V224.545H79.116C80.9114 224.545 82.4626 224.895 83.7694 225.594C85.0819 226.287 86.0933 227.287 86.8035 228.594C87.5194 229.895 87.8774 231.455 87.8774 233.273C87.8774 235.091 87.5222 236.653 86.812 237.96C86.1018 239.261 85.0961 240.261 83.795 240.96C82.4938 241.653 80.9569 242 79.1842 242ZM77.2069 237.977H79.0137C79.8774 237.977 80.6131 237.838 81.2211 237.56C81.8347 237.281 82.3006 236.801 82.6188 236.119C82.9427 235.437 83.1046 234.489 83.1046 233.273C83.1046 232.057 82.9399 231.108 82.6103 230.426C82.2864 229.744 81.8092 229.264 81.1785 228.986C80.5535 228.707 79.7864 228.568 78.8774 228.568H77.2069V237.977ZM90.0698 242V224.545H102.649V228.364H94.8085V231.364H102.002V235.182H94.8085V238.182H102.615V242H90.0698ZM109.772 224.545L113.352 236.852H113.488L117.068 224.545H122.42L116.659 242H110.181L104.42 224.545H109.772ZM134.576 242.273C133.326 242.273 132.249 242.051 131.345 241.608C130.442 241.165 129.749 240.571 129.266 239.827C128.783 239.082 128.541 238.261 128.541 237.364C128.541 236.71 128.666 236.134 128.916 235.634C129.166 235.128 129.516 234.665 129.965 234.244C130.414 233.824 130.939 233.409 131.541 233L135.496 230.545C135.894 230.295 136.164 230.037 136.306 229.77C136.448 229.497 136.519 229.256 136.519 229.045C136.519 228.767 136.416 228.52 136.212 228.304C136.007 228.088 135.689 227.983 135.257 227.989C134.99 227.989 134.76 228.04 134.567 228.142C134.374 228.239 134.223 228.375 134.115 228.551C134.013 228.727 133.962 228.937 133.962 229.182C133.962 229.517 134.058 229.861 134.252 230.213C134.445 230.56 134.709 230.935 135.044 231.338C135.379 231.741 135.757 232.193 136.178 232.693L144.632 242H139.928L132.837 234.5C132.49 234.131 132.107 233.679 131.686 233.145C131.266 232.605 130.902 231.997 130.595 231.321C130.294 230.645 130.144 229.909 130.144 229.114C130.144 228.227 130.357 227.418 130.783 226.685C131.209 225.952 131.806 225.366 132.573 224.929C133.34 224.491 134.235 224.273 135.257 224.273C136.235 224.273 137.076 224.474 137.78 224.878C138.49 225.281 139.036 225.818 139.416 226.489C139.803 227.159 139.996 227.898 139.996 228.705C139.996 229.517 139.794 230.276 139.391 230.98C138.993 231.685 138.422 232.301 137.678 232.83L134.064 235.386C133.786 235.58 133.544 235.801 133.34 236.051C133.141 236.301 133.041 236.625 133.041 237.023C133.041 237.352 133.118 237.634 133.272 237.866C133.425 238.099 133.641 238.278 133.919 238.403C134.203 238.528 134.536 238.591 134.916 238.591C135.496 238.591 136.076 238.452 136.655 238.173C137.24 237.889 137.774 237.494 138.257 236.989C138.74 236.477 139.127 235.875 139.416 235.182C139.712 234.483 139.86 233.722 139.86 232.898H143.576C143.576 233.909 143.47 234.884 143.26 235.821C143.05 236.759 142.712 237.616 142.246 238.395C141.78 239.173 141.166 239.83 140.405 240.364C140.166 240.483 139.933 240.597 139.706 240.705C139.479 240.812 139.246 240.926 139.007 241.045C138.308 241.494 137.578 241.812 136.817 242C136.056 242.182 135.308 242.273 134.576 242.273ZM157.114 242H150.398V224.545H157.046C158.841 224.545 160.392 224.895 161.699 225.594C163.012 226.287 164.023 227.287 164.733 228.594C165.449 229.895 165.807 231.455 165.807 233.273C165.807 235.091 165.452 236.653 164.742 237.96C164.031 239.261 163.026 240.261 161.725 240.96C160.424 241.653 158.887 242 157.114 242ZM155.137 237.977H156.943C157.807 237.977 158.543 237.838 159.151 237.56C159.764 237.281 160.23 236.801 160.549 236.119C160.872 235.437 161.034 234.489 161.034 233.273C161.034 232.057 160.87 231.108 160.54 230.426C160.216 229.744 159.739 229.264 159.108 228.986C158.483 228.707 157.716 228.568 156.807 228.568H155.137V237.977ZM168 242V224.545H180.579V228.364H172.738V231.364H179.931V235.182H172.738V238.182H180.545V242H168ZM192.338 230C192.293 229.432 192.08 228.989 191.699 228.67C191.324 228.352 190.753 228.193 189.986 228.193C189.497 228.193 189.097 228.253 188.784 228.372C188.477 228.486 188.25 228.642 188.102 228.841C187.955 229.04 187.878 229.267 187.872 229.523C187.861 229.733 187.898 229.923 187.983 230.094C188.074 230.259 188.216 230.409 188.409 230.545C188.602 230.676 188.85 230.795 189.151 230.903C189.452 231.011 189.81 231.108 190.225 231.193L191.656 231.5C192.622 231.705 193.449 231.974 194.137 232.31C194.824 232.645 195.387 233.04 195.824 233.494C196.262 233.943 196.583 234.449 196.787 235.011C196.997 235.574 197.105 236.187 197.111 236.852C197.105 238 196.818 238.972 196.25 239.767C195.682 240.562 194.87 241.168 193.813 241.582C192.762 241.997 191.497 242.205 190.02 242.205C188.503 242.205 187.179 241.98 186.049 241.531C184.924 241.082 184.049 240.392 183.424 239.46C182.804 238.523 182.492 237.324 182.486 235.864H186.986C187.014 236.398 187.148 236.847 187.387 237.21C187.625 237.574 187.96 237.849 188.392 238.037C188.83 238.224 189.35 238.318 189.952 238.318C190.458 238.318 190.881 238.256 191.222 238.131C191.563 238.006 191.821 237.832 191.997 237.611C192.174 237.389 192.264 237.136 192.27 236.852C192.264 236.585 192.176 236.352 192.006 236.153C191.841 235.949 191.568 235.767 191.188 235.608C190.807 235.443 190.293 235.29 189.645 235.148L187.906 234.773C186.361 234.437 185.142 233.878 184.25 233.094C183.364 232.304 182.924 231.227 182.929 229.864C182.924 228.756 183.219 227.787 183.816 226.957C184.418 226.122 185.25 225.472 186.313 225.006C187.381 224.54 188.605 224.307 189.986 224.307C191.395 224.307 192.614 224.543 193.642 225.014C194.671 225.486 195.463 226.151 196.02 227.009C196.583 227.861 196.867 228.858 196.872 230H192.338ZM203.652 224.545V242H198.914V224.545H203.652ZM217.233 230.307C217.159 230.006 217.043 229.741 216.884 229.514C216.725 229.281 216.526 229.085 216.287 228.926C216.054 228.761 215.781 228.639 215.469 228.56C215.162 228.474 214.824 228.432 214.455 228.432C213.659 228.432 212.98 228.622 212.418 229.003C211.861 229.384 211.435 229.932 211.139 230.648C210.85 231.364 210.705 232.227 210.705 233.239C210.705 234.261 210.844 235.136 211.122 235.864C211.401 236.591 211.816 237.148 212.367 237.534C212.918 237.92 213.602 238.114 214.421 238.114C215.142 238.114 215.742 238.009 216.219 237.798C216.702 237.588 217.063 237.29 217.301 236.903C217.54 236.517 217.659 236.062 217.659 235.54L218.477 235.625H214.489V232.25H222.227V234.67C222.227 236.261 221.889 237.622 221.213 238.753C220.543 239.878 219.617 240.741 218.435 241.344C217.259 241.94 215.909 242.239 214.387 242.239C212.688 242.239 211.196 241.878 209.912 241.156C208.628 240.435 207.625 239.406 206.904 238.071C206.188 236.736 205.83 235.148 205.83 233.307C205.83 231.864 206.049 230.585 206.486 229.472C206.929 228.358 207.543 227.418 208.327 226.651C209.111 225.878 210.017 225.295 211.046 224.903C212.074 224.506 213.176 224.307 214.352 224.307C215.387 224.307 216.347 224.455 217.233 224.75C218.125 225.04 218.912 225.455 219.594 225.994C220.281 226.528 220.835 227.162 221.256 227.895C221.676 228.628 221.932 229.432 222.023 230.307H217.233ZM239.539 224.545V242H235.585L229.278 232.83H229.176V242H224.437V224.545H228.46L234.664 233.682H234.801V224.545H239.539Z" fill="black" fill-opacity="0.71"/>
<path d="M104.489 252.78C104.773 252.78 105.032 252.821 105.267 252.904C105.501 252.985 105.712 253.089 105.899 253.217C106.088 253.344 106.254 253.477 106.396 253.614C106.462 253.676 106.52 253.735 106.57 253.792C106.622 253.846 106.673 253.902 106.723 253.959C106.768 253.902 106.815 253.846 106.865 253.792C106.914 253.737 106.974 253.678 107.042 253.614C107.258 253.406 107.525 253.215 107.845 253.043C108.167 252.867 108.537 252.78 108.956 252.78C109.354 252.78 109.716 252.876 110.043 253.067C110.37 253.259 110.629 253.516 110.821 253.838C111.015 254.16 111.112 254.515 111.112 254.903C111.112 255.197 111.056 255.473 110.945 255.731C110.834 255.989 110.679 256.215 110.48 256.409C110.283 256.603 110.055 256.755 109.794 256.864C109.534 256.973 109.255 257.027 108.956 257.027C108.672 257.027 108.413 256.988 108.179 256.91C107.944 256.829 107.734 256.728 107.546 256.604C107.359 256.481 107.195 256.353 107.053 256.221C106.982 256.152 106.92 256.089 106.868 256.033C106.816 255.976 106.768 255.919 106.723 255.862C106.671 255.921 106.618 255.981 106.566 256.04C106.514 256.097 106.455 256.157 106.389 256.221C106.251 256.349 106.089 256.475 105.902 256.601C105.715 256.724 105.503 256.826 105.267 256.906C105.032 256.987 104.773 257.027 104.489 257.027C104.091 257.027 103.729 256.932 103.402 256.743C103.076 256.551 102.815 256.295 102.621 255.976C102.427 255.654 102.33 255.296 102.33 254.903C102.33 254.612 102.385 254.339 102.497 254.083C102.608 253.827 102.762 253.603 102.958 253.408C103.157 253.212 103.387 253.058 103.647 252.947C103.91 252.835 104.191 252.78 104.489 252.78ZM103.488 254.903C103.488 255.083 103.533 255.248 103.622 255.397C103.712 255.544 103.833 255.661 103.985 255.749C104.136 255.834 104.304 255.876 104.489 255.876C104.704 255.876 104.901 255.831 105.078 255.741C105.258 255.649 105.429 255.528 105.59 255.379C105.684 255.292 105.765 255.208 105.831 255.127C105.898 255.044 105.954 254.97 106.002 254.903C105.952 254.837 105.888 254.76 105.81 254.673C105.734 254.585 105.661 254.508 105.59 254.442C105.441 254.3 105.274 254.179 105.089 254.08C104.904 253.98 104.704 253.93 104.489 253.93C104.304 253.93 104.136 253.975 103.985 254.065C103.833 254.153 103.712 254.271 103.622 254.42C103.533 254.567 103.488 254.728 103.488 254.903ZM109.951 254.903C109.951 254.728 109.906 254.567 109.816 254.42C109.726 254.271 109.605 254.153 109.453 254.065C109.304 253.975 109.139 253.93 108.956 253.93C108.809 253.93 108.67 253.954 108.537 254.001C108.407 254.046 108.284 254.108 108.168 254.186C108.052 254.262 107.947 254.347 107.852 254.442C107.767 254.522 107.685 254.609 107.607 254.701C107.531 254.793 107.475 254.861 107.44 254.903C107.494 254.979 107.555 255.056 107.621 255.134C107.687 255.212 107.764 255.294 107.852 255.379C108.008 255.526 108.176 255.646 108.356 255.738C108.536 255.83 108.736 255.876 108.956 255.876C109.139 255.876 109.304 255.834 109.453 255.749C109.605 255.661 109.726 255.544 109.816 255.397C109.906 255.248 109.951 255.083 109.951 254.903ZM115.518 253.835V254.893H112.244V253.835H115.518ZM116.927 258V250.727H119.654C120.213 250.727 120.682 250.831 121.06 251.04C121.441 251.248 121.729 251.535 121.923 251.899C122.12 252.261 122.218 252.673 122.218 253.135C122.218 253.601 122.12 254.016 121.923 254.378C121.727 254.74 121.437 255.025 121.053 255.234C120.67 255.44 120.197 255.543 119.636 255.543H117.829V254.46H119.459C119.785 254.46 120.053 254.403 120.261 254.289C120.47 254.175 120.624 254.019 120.723 253.82C120.825 253.621 120.876 253.393 120.876 253.135C120.876 252.877 120.825 252.65 120.723 252.453C120.624 252.257 120.468 252.104 120.258 251.995C120.049 251.884 119.781 251.828 119.452 251.828H118.244V258H116.927ZM123.486 258H122.08L124.64 250.727H126.266L128.83 258H127.424L125.481 252.219H125.425L123.486 258ZM123.532 255.148H127.367V256.207H123.532V255.148ZM134.318 253.05C134.259 252.858 134.178 252.686 134.073 252.535C133.972 252.381 133.849 252.25 133.704 252.141C133.562 252.032 133.399 251.95 133.214 251.896C133.029 251.839 132.828 251.81 132.61 251.81C132.22 251.81 131.872 251.909 131.566 252.105C131.261 252.302 131.021 252.59 130.845 252.972C130.673 253.35 130.586 253.812 130.586 254.357C130.586 254.906 130.673 255.371 130.845 255.752C131.018 256.133 131.259 256.423 131.566 256.622C131.874 256.819 132.232 256.917 132.639 256.917C133.008 256.917 133.328 256.846 133.598 256.704C133.87 256.562 134.079 256.361 134.226 256.1C134.373 255.837 134.446 255.53 134.446 255.177L134.745 255.223H132.77V254.193H135.721V255.067C135.721 255.689 135.589 256.228 135.323 256.683C135.058 257.137 134.694 257.487 134.23 257.734C133.766 257.978 133.233 258.099 132.632 258.099C131.962 258.099 131.373 257.949 130.867 257.648C130.363 257.345 129.968 256.916 129.684 256.359C129.403 255.801 129.262 255.138 129.262 254.371C129.262 253.784 129.345 253.259 129.51 252.798C129.678 252.336 129.913 251.944 130.213 251.622C130.514 251.298 130.867 251.052 131.272 250.884C131.676 250.713 132.117 250.628 132.593 250.628C132.995 250.628 133.37 250.687 133.718 250.805C134.066 250.921 134.375 251.087 134.645 251.303C134.917 251.518 135.141 251.774 135.316 252.07C135.492 252.366 135.606 252.692 135.661 253.05H134.318ZM136.995 258V250.727H141.725V251.832H138.313V253.806H141.48V254.911H138.313V256.896H141.754V258H136.995ZM151.526 250.727V258H150.355L146.928 253.046H146.867V258H145.55V250.727H146.729L150.152 255.685H150.216V250.727H151.526ZM159.461 254.364C159.461 255.147 159.314 255.818 159.02 256.377C158.729 256.933 158.331 257.36 157.827 257.656C157.325 257.951 156.756 258.099 156.119 258.099C155.482 258.099 154.912 257.951 154.407 257.656C153.905 257.357 153.508 256.93 153.214 256.374C152.923 255.815 152.777 255.145 152.777 254.364C152.777 253.58 152.923 252.91 153.214 252.354C153.508 251.795 153.905 251.368 154.407 251.072C154.912 250.776 155.482 250.628 156.119 250.628C156.756 250.628 157.325 250.776 157.827 251.072C158.331 251.368 158.729 251.795 159.02 252.354C159.314 252.91 159.461 253.58 159.461 254.364ZM158.136 254.364C158.136 253.812 158.05 253.347 157.877 252.968C157.706 252.587 157.47 252.299 157.167 252.105C156.863 251.909 156.514 251.81 156.119 251.81C155.724 251.81 155.374 251.909 155.071 252.105C154.768 252.299 154.53 252.587 154.358 252.968C154.187 253.347 154.102 253.812 154.102 254.364C154.102 254.915 154.187 255.382 154.358 255.763C154.53 256.142 154.768 256.429 155.071 256.626C155.374 256.82 155.724 256.917 156.119 256.917C156.514 256.917 156.863 256.82 157.167 256.626C157.47 256.429 157.706 256.142 157.877 255.763C158.05 255.382 158.136 254.915 158.136 254.364ZM160.064 251.832V250.727H165.867V251.832H163.619V258H162.312V251.832H160.064ZM166.985 258V250.727H171.716V251.832H168.303V253.806H171.47V254.911H168.303V256.896H171.744V258H166.985ZM175.54 258V250.727H178.324C178.85 250.727 179.287 250.81 179.635 250.976C179.985 251.139 180.247 251.363 180.419 251.647C180.595 251.931 180.682 252.253 180.682 252.613C180.682 252.909 180.625 253.162 180.512 253.373C180.398 253.581 180.245 253.75 180.054 253.881C179.862 254.011 179.648 254.104 179.411 254.161V254.232C179.669 254.246 179.916 254.326 180.153 254.47C180.392 254.612 180.587 254.813 180.739 255.074C180.89 255.334 180.966 255.649 180.966 256.018C180.966 256.395 180.875 256.733 180.693 257.034C180.51 257.332 180.236 257.568 179.869 257.741C179.502 257.914 179.04 258 178.484 258H175.54ZM176.858 256.899H178.274C178.753 256.899 179.097 256.808 179.308 256.626C179.521 256.441 179.627 256.204 179.627 255.915C179.627 255.7 179.574 255.506 179.468 255.333C179.361 255.158 179.21 255.021 179.013 254.921C178.817 254.819 178.582 254.768 178.31 254.768H176.858V256.899ZM176.858 253.82H178.161C178.388 253.82 178.593 253.779 178.775 253.696C178.957 253.611 179.101 253.491 179.205 253.337C179.311 253.181 179.365 252.996 179.365 252.783C179.365 252.502 179.265 252.27 179.066 252.087C178.87 251.905 178.577 251.814 178.189 251.814H176.858V253.82ZM188.611 254.364C188.611 255.147 188.464 255.818 188.171 256.377C187.879 256.933 187.482 257.36 186.977 257.656C186.476 257.951 185.906 258.099 185.269 258.099C184.632 258.099 184.062 257.951 183.558 257.656C183.056 257.357 182.658 256.93 182.364 256.374C182.073 255.815 181.928 255.145 181.928 254.364C181.928 253.58 182.073 252.91 182.364 252.354C182.658 251.795 183.056 251.368 183.558 251.072C184.062 250.776 184.632 250.628 185.269 250.628C185.906 250.628 186.476 250.776 186.977 251.072C187.482 251.368 187.879 251.795 188.171 252.354C188.464 252.91 188.611 253.58 188.611 254.364ZM187.286 254.364C187.286 253.812 187.2 253.347 187.027 252.968C186.857 252.587 186.62 252.299 186.317 252.105C186.014 251.909 185.665 251.81 185.269 251.81C184.874 251.81 184.525 251.909 184.222 252.105C183.919 252.299 183.681 252.587 183.508 252.968C183.337 253.347 183.252 253.812 183.252 254.364C183.252 254.915 183.337 255.382 183.508 255.763C183.681 256.142 183.919 256.429 184.222 256.626C184.525 256.82 184.874 256.917 185.269 256.917C185.665 256.917 186.014 256.82 186.317 256.626C186.62 256.429 186.857 256.142 187.027 255.763C187.2 255.382 187.286 254.915 187.286 254.364ZM196.355 254.364C196.355 255.147 196.208 255.818 195.915 256.377C195.624 256.933 195.226 257.36 194.722 257.656C194.22 257.951 193.65 258.099 193.013 258.099C192.377 258.099 191.806 257.951 191.302 257.656C190.8 257.357 190.402 256.93 190.109 256.374C189.817 255.815 189.672 255.145 189.672 254.364C189.672 253.58 189.817 252.91 190.109 252.354C190.402 251.795 190.8 251.368 191.302 251.072C191.806 250.776 192.377 250.628 193.013 250.628C193.65 250.628 194.22 250.776 194.722 251.072C195.226 251.368 195.624 251.795 195.915 252.354C196.208 252.91 196.355 253.58 196.355 254.364ZM195.03 254.364C195.03 253.812 194.944 253.347 194.771 252.968C194.601 252.587 194.364 252.299 194.061 252.105C193.758 251.909 193.409 251.81 193.013 251.81C192.618 251.81 192.269 251.909 191.966 252.105C191.663 252.299 191.425 252.587 191.252 252.968C191.082 253.347 190.996 253.812 190.996 254.364C190.996 254.915 191.082 255.382 191.252 255.763C191.425 256.142 191.663 256.429 191.966 256.626C192.269 256.82 192.618 256.917 193.013 256.917C193.409 256.917 193.758 256.82 194.061 256.626C194.364 256.429 194.601 256.142 194.771 255.763C194.944 255.382 195.03 254.915 195.03 254.364ZM197.601 258V250.727H198.918V254.069H199.007L201.844 250.727H203.453L200.64 253.991L203.478 258H201.894L199.724 254.882L198.918 255.834V258H197.601ZM208.282 252.727C208.248 252.416 208.109 252.175 207.863 252.002C207.619 251.829 207.301 251.743 206.911 251.743C206.636 251.743 206.401 251.784 206.204 251.867C206.008 251.95 205.857 252.062 205.753 252.205C205.649 252.347 205.596 252.509 205.593 252.691C205.593 252.843 205.628 252.974 205.696 253.085C205.767 253.196 205.863 253.291 205.984 253.369C206.105 253.445 206.238 253.509 206.385 253.561C206.532 253.613 206.68 253.657 206.829 253.692L207.511 253.863C207.786 253.927 208.05 254.013 208.303 254.122C208.559 254.231 208.787 254.368 208.988 254.534C209.192 254.7 209.353 254.9 209.471 255.134C209.59 255.369 209.649 255.643 209.649 255.958C209.649 256.384 209.54 256.759 209.322 257.084C209.104 257.406 208.789 257.658 208.377 257.84C207.968 258.02 207.472 258.11 206.89 258.11C206.324 258.11 205.832 258.022 205.416 257.847C205.001 257.672 204.677 257.416 204.443 257.08C204.211 256.744 204.085 256.335 204.066 255.852H205.363C205.381 256.105 205.46 256.316 205.597 256.484C205.734 256.652 205.913 256.777 206.133 256.86C206.356 256.943 206.604 256.984 206.879 256.984C207.165 256.984 207.416 256.942 207.632 256.857C207.85 256.769 208.02 256.648 208.143 256.494C208.266 256.338 208.329 256.156 208.331 255.947C208.329 255.758 208.273 255.602 208.164 255.479C208.055 255.353 207.903 255.249 207.706 255.166C207.512 255.081 207.285 255.005 207.024 254.939L206.197 254.726C205.598 254.572 205.125 254.339 204.777 254.026C204.431 253.711 204.258 253.294 204.258 252.773C204.258 252.344 204.374 251.969 204.606 251.647C204.841 251.325 205.159 251.075 205.561 250.898C205.964 250.718 206.42 250.628 206.929 250.628C207.445 250.628 207.897 250.718 208.285 250.898C208.676 251.075 208.982 251.323 209.205 251.64C209.427 251.955 209.542 252.317 209.549 252.727H208.282Z" fill="black" fill-opacity="0.71"/>
<path d="M18.6592 267.982L295.002 267.982" stroke="black" stroke-width="0.888563" stroke-linecap="round"/>
<path d="M19.0439 285.622V284.654L21.472 280.828H22.3069V282.169H21.8128L20.2821 284.591V284.637H23.7325V285.622H19.0439ZM21.8355 286.645V285.327L21.8582 284.898V280.828H23.0112V286.645H21.8355ZM27.281 283.257V284.216H24.6285V283.257H27.281ZM30.4112 286.724C29.9871 286.724 29.6094 286.651 29.2781 286.505C28.9487 286.358 28.6883 286.155 28.4971 285.898C28.3078 285.638 28.2103 285.339 28.2046 285H29.4428C29.4504 285.142 29.4968 285.267 29.582 285.375C29.669 285.481 29.7845 285.563 29.9284 285.622C30.0723 285.681 30.2342 285.71 30.414 285.71C30.6015 285.71 30.7671 285.677 30.911 285.611C31.0549 285.545 31.1675 285.453 31.249 285.335C31.3304 285.218 31.3711 285.083 31.3711 284.929C31.3711 284.774 31.3275 284.637 31.2404 284.517C31.1552 284.396 31.0322 284.302 30.8713 284.233C30.7122 284.165 30.5229 284.131 30.3033 284.131H29.7609V283.228H30.3033C30.4888 283.228 30.6526 283.196 30.7946 283.132C30.9385 283.067 31.0502 282.978 31.1297 282.865C31.2092 282.749 31.249 282.615 31.249 282.461C31.249 282.316 31.2139 282.188 31.1439 282.078C31.0757 281.966 30.9792 281.879 30.8542 281.817C30.7312 281.754 30.5873 281.723 30.4226 281.723C30.256 281.723 30.1035 281.753 29.9653 281.814C29.8271 281.873 29.7164 281.957 29.6331 282.067C29.5498 282.176 29.5053 282.305 29.4996 282.453H28.3211C28.3267 282.118 28.4223 281.822 28.6079 281.567C28.7934 281.311 29.0433 281.112 29.3576 280.968C29.6738 280.822 30.0307 280.749 30.4282 280.749C30.8296 280.749 31.1808 280.822 31.4818 280.968C31.7829 281.113 32.0167 281.31 32.1833 281.558C32.3518 281.804 32.4351 282.081 32.4332 282.388C32.4351 282.713 32.3338 282.985 32.1293 283.203C31.9267 283.42 31.6626 283.559 31.337 283.617V283.663C31.7649 283.718 32.0905 283.866 32.3139 284.109C32.5392 284.349 32.6509 284.65 32.649 285.012C32.6509 285.343 32.5553 285.637 32.3622 285.895C32.171 286.152 31.9069 286.355 31.5699 286.503C31.2329 286.65 30.8466 286.724 30.4112 286.724ZM34.5581 280.828V281.442C34.5581 281.616 34.524 281.794 34.4559 281.976C34.3896 282.156 34.3006 282.326 34.1889 282.487C34.0772 282.646 33.9551 282.781 33.8226 282.893L33.2887 282.578C33.3834 282.428 33.4667 282.263 33.5386 282.081C33.6124 281.899 33.6494 281.688 33.6494 281.448V280.828H34.5581ZM35.9866 280.828V281.442C35.9866 281.616 35.9525 281.794 35.8843 281.976C35.8181 282.156 35.7291 282.326 35.6174 282.487C35.5057 282.646 35.3826 282.781 35.2482 282.893L34.7143 282.578C34.8109 282.428 34.8951 282.263 34.9671 282.081C35.0409 281.899 35.0778 281.688 35.0778 281.448V280.828H35.9866ZM39.7721 282.282L40.573 283.808L41.3937 282.282H42.6347L41.371 284.464L42.6688 286.645H41.4334L40.573 285.137L39.7267 286.645H38.4771L39.7721 284.464L38.5226 282.282H39.7721ZM45.4227 286.645L47.8338 281.874V281.834H45.0252V280.828H49.106V281.848L46.6922 286.645H45.4227ZM52.6779 283.257V284.216H50.0255V283.257H52.6779ZM56.2277 280.828V286.645H54.9981V281.996H54.964L53.6321 282.831V281.74L55.0719 280.828H56.2277ZM60.1546 280.556L58.2802 287.519H57.238L59.1123 280.556H60.1546ZM60.7261 286.645V285.758L62.7963 283.842C62.9724 283.671 63.1201 283.518 63.2394 283.382C63.3605 283.245 63.4523 283.112 63.5148 282.981C63.5773 282.849 63.6085 282.706 63.6085 282.552C63.6085 282.382 63.5697 282.235 63.4921 282.112C63.4145 281.987 63.3085 281.892 63.174 281.825C63.0396 281.757 62.8872 281.723 62.7168 281.723C62.5389 281.723 62.3836 281.759 62.2511 281.831C62.1186 281.903 62.0163 282.006 61.9444 282.141C61.8724 282.275 61.8365 282.435 61.8365 282.62H60.6693C60.6693 282.24 60.7554 281.91 60.9277 281.629C61.1 281.349 61.3414 281.132 61.6519 280.979C61.9624 280.826 62.3202 280.749 62.7253 280.749C63.1419 280.749 63.5044 280.823 63.813 280.97C64.1235 281.116 64.3649 281.319 64.5372 281.578C64.7095 281.838 64.7956 282.135 64.7956 282.47C64.7956 282.69 64.7521 282.906 64.665 283.12C64.5798 283.334 64.4274 283.572 64.2078 283.833C63.9881 284.092 63.6786 284.404 63.2791 284.767L62.43 285.599V285.639H64.8723V286.645H60.7261ZM66.7885 280.828V281.442C66.7885 281.616 66.7544 281.794 66.6862 281.976C66.62 282.156 66.531 282.326 66.4193 282.487C66.3076 282.646 66.1855 282.781 66.053 282.893L65.5191 282.578C65.6137 282.428 65.697 282.263 65.769 282.081C65.8428 281.899 65.8797 281.688 65.8797 281.448V280.828H66.7885ZM68.2169 280.828V281.442C68.2169 281.616 68.1829 281.794 68.1147 281.976C68.0484 282.156 67.9595 282.326 67.8478 282.487C67.736 282.646 67.613 282.781 67.4786 282.893L66.9447 282.578C67.0412 282.428 67.1255 282.263 67.1974 282.081C67.2713 281.899 67.3082 281.688 67.3082 281.448V280.828H68.2169Z" fill="#3A2E1F"/>
<path d="M234.905 286.645H232.843V280.828H234.922C235.507 280.828 236.011 280.945 236.433 281.178C236.855 281.409 237.18 281.741 237.407 282.175C237.636 282.608 237.751 283.127 237.751 283.731C237.751 284.337 237.636 284.857 237.407 285.293C237.18 285.728 236.853 286.062 236.427 286.295C236.003 286.528 235.496 286.645 234.905 286.645ZM234.073 285.591H234.854C235.218 285.591 235.523 285.527 235.771 285.398C236.021 285.267 236.209 285.066 236.334 284.793C236.461 284.518 236.524 284.164 236.524 283.731C236.524 283.301 236.461 282.95 236.334 282.677C236.209 282.405 236.022 282.204 235.774 282.075C235.526 281.946 235.22 281.882 234.857 281.882H234.073V285.591ZM240.61 286.73C240.169 286.73 239.787 286.636 239.465 286.449C239.145 286.259 238.898 285.996 238.724 285.659C238.55 285.32 238.463 284.927 238.463 284.481C238.463 284.03 238.55 283.636 238.724 283.299C238.898 282.96 239.145 282.697 239.465 282.51C239.787 282.32 240.169 282.226 240.61 282.226C241.051 282.226 241.431 282.32 241.751 282.51C242.073 282.697 242.321 282.96 242.495 283.299C242.67 283.636 242.757 284.03 242.757 284.481C242.757 284.927 242.67 285.32 242.495 285.659C242.321 285.996 242.073 286.259 241.751 286.449C241.431 286.636 241.051 286.73 240.61 286.73ZM240.615 285.793C240.816 285.793 240.984 285.736 241.118 285.622C241.253 285.507 241.354 285.35 241.422 285.151C241.492 284.952 241.527 284.726 241.527 284.472C241.527 284.218 241.492 283.992 241.422 283.793C241.354 283.595 241.253 283.437 241.118 283.322C240.984 283.206 240.816 283.149 240.615 283.149C240.413 283.149 240.242 283.206 240.104 283.322C239.968 283.437 239.865 283.595 239.795 283.793C239.727 283.992 239.693 284.218 239.693 284.472C239.693 284.726 239.727 284.952 239.795 285.151C239.865 285.35 239.968 285.507 240.104 285.622C240.242 285.736 240.413 285.793 240.615 285.793ZM246.341 284.787V282.282H247.55V286.645H246.389V285.852H246.343C246.245 286.108 246.081 286.313 245.852 286.468C245.625 286.624 245.348 286.701 245.02 286.701C244.729 286.701 244.472 286.635 244.25 286.503C244.029 286.37 243.856 286.182 243.731 285.937C243.608 285.693 243.545 285.401 243.543 285.06V282.282H244.753V284.844C244.755 285.102 244.824 285.305 244.96 285.455C245.097 285.604 245.279 285.679 245.509 285.679C245.654 285.679 245.791 285.646 245.917 285.58C246.044 285.511 246.147 285.411 246.224 285.279C246.304 285.146 246.343 284.982 246.341 284.787ZM248.541 286.645V280.828H249.751V283.015H249.788C249.841 282.898 249.917 282.779 250.018 282.657C250.12 282.534 250.252 282.432 250.415 282.351C250.58 282.267 250.784 282.226 251.029 282.226C251.347 282.226 251.64 282.309 251.909 282.476C252.178 282.64 252.393 282.889 252.554 283.222C252.714 283.554 252.795 283.969 252.795 284.469C252.795 284.956 252.716 285.367 252.559 285.702C252.404 286.035 252.192 286.288 251.923 286.46C251.656 286.63 251.357 286.716 251.026 286.716C250.791 286.716 250.591 286.677 250.426 286.599C250.264 286.521 250.13 286.424 250.026 286.307C249.922 286.187 249.842 286.067 249.788 285.946H249.734V286.645H248.541ZM249.725 284.464C249.725 284.723 249.761 284.949 249.833 285.142C249.905 285.335 250.009 285.486 250.145 285.594C250.282 285.7 250.447 285.753 250.642 285.753C250.839 285.753 251.006 285.699 251.142 285.591C251.278 285.481 251.382 285.33 251.452 285.137C251.524 284.942 251.56 284.717 251.56 284.464C251.56 284.212 251.525 283.99 251.455 283.799C251.384 283.608 251.281 283.458 251.145 283.35C251.009 283.242 250.841 283.188 250.642 283.188C250.445 283.188 250.279 283.24 250.143 283.345C250.008 283.449 249.905 283.596 249.833 283.788C249.761 283.979 249.725 284.204 249.725 284.464ZM254.812 280.828V286.645H253.602V280.828H254.812ZM257.769 286.73C257.32 286.73 256.934 286.639 256.61 286.457C256.288 286.273 256.04 286.014 255.866 285.679C255.692 285.342 255.605 284.943 255.605 284.483C255.605 284.035 255.692 283.641 255.866 283.302C256.04 282.963 256.286 282.699 256.602 282.51C256.92 282.32 257.293 282.226 257.721 282.226C258.008 282.226 258.276 282.272 258.524 282.365C258.774 282.456 258.992 282.593 259.178 282.777C259.365 282.96 259.511 283.191 259.615 283.47C259.719 283.746 259.771 284.07 259.771 284.441V284.773H256.088V284.023H258.632C258.632 283.849 258.594 283.695 258.519 283.56C258.443 283.426 258.338 283.321 258.203 283.245C258.071 283.168 257.917 283.129 257.741 283.129C257.557 283.129 257.394 283.171 257.252 283.257C257.112 283.34 257.002 283.453 256.923 283.595C256.843 283.735 256.802 283.891 256.801 284.063V284.776C256.801 284.992 256.84 285.178 256.92 285.335C257.001 285.492 257.116 285.614 257.263 285.699C257.411 285.784 257.586 285.827 257.789 285.827C257.923 285.827 258.046 285.808 258.158 285.77C258.27 285.732 258.365 285.675 258.445 285.599C258.524 285.524 258.585 285.431 258.627 285.321L259.746 285.395C259.689 285.664 259.572 285.899 259.396 286.099C259.222 286.298 258.997 286.453 258.72 286.565C258.446 286.675 258.129 286.73 257.769 286.73ZM262.411 286.645V282.282H263.564V283.052H263.616C263.706 282.797 263.858 282.595 264.07 282.447C264.282 282.3 264.536 282.226 264.831 282.226C265.13 282.226 265.385 282.3 265.595 282.45C265.805 282.598 265.945 282.798 266.015 283.052H266.061C266.15 282.802 266.311 282.602 266.543 282.453C266.778 282.301 267.056 282.226 267.376 282.226C267.783 282.226 268.113 282.355 268.367 282.615C268.622 282.872 268.75 283.238 268.75 283.711V286.645H267.543V283.949C267.543 283.707 267.479 283.525 267.35 283.404C267.221 283.283 267.06 283.222 266.867 283.222C266.648 283.222 266.476 283.293 266.353 283.433C266.23 283.571 266.169 283.754 266.169 283.981V286.645H264.996V283.924C264.996 283.71 264.934 283.54 264.811 283.413C264.69 283.286 264.53 283.222 264.331 283.222C264.197 283.222 264.076 283.257 263.968 283.325C263.862 283.391 263.777 283.485 263.715 283.606C263.652 283.725 263.621 283.865 263.621 284.026V286.645H262.411ZM270.95 286.727C270.671 286.727 270.423 286.679 270.205 286.582C269.988 286.484 269.815 286.339 269.689 286.148C269.564 285.954 269.501 285.714 269.501 285.426C269.501 285.184 269.546 284.98 269.635 284.816C269.724 284.651 269.845 284.518 269.998 284.418C270.152 284.318 270.326 284.242 270.521 284.191C270.718 284.14 270.924 284.104 271.14 284.083C271.393 284.056 271.598 284.032 271.753 284.009C271.908 283.985 272.021 283.949 272.091 283.901C272.161 283.854 272.196 283.784 272.196 283.691V283.674C272.196 283.494 272.139 283.355 272.026 283.257C271.914 283.158 271.755 283.109 271.549 283.109C271.331 283.109 271.158 283.157 271.029 283.254C270.9 283.348 270.815 283.468 270.773 283.612L269.655 283.521C269.711 283.256 269.823 283.027 269.99 282.833C270.156 282.638 270.371 282.489 270.634 282.385C270.899 282.279 271.206 282.226 271.554 282.226C271.797 282.226 272.029 282.254 272.25 282.311C272.474 282.368 272.671 282.456 272.844 282.575C273.018 282.694 273.155 282.848 273.255 283.035C273.356 283.221 273.406 283.443 273.406 283.702V286.645H272.259V286.04H272.225C272.155 286.176 272.061 286.296 271.943 286.4C271.826 286.503 271.685 286.583 271.52 286.642C271.356 286.698 271.165 286.727 270.95 286.727ZM271.296 285.892C271.474 285.892 271.631 285.857 271.767 285.787C271.904 285.715 272.011 285.618 272.088 285.497C272.166 285.376 272.205 285.239 272.205 285.085V284.623C272.167 284.647 272.115 284.67 272.049 284.691C271.984 284.71 271.911 284.728 271.83 284.745C271.748 284.76 271.667 284.774 271.586 284.787C271.504 284.799 271.43 284.809 271.364 284.818C271.222 284.839 271.098 284.872 270.992 284.918C270.886 284.963 270.804 285.025 270.745 285.102C270.686 285.178 270.657 285.273 270.657 285.386C270.657 285.551 270.717 285.677 270.836 285.764C270.957 285.849 271.11 285.892 271.296 285.892ZM276.665 282.282V283.191H274.038V282.282H276.665ZM274.634 281.237H275.844V285.304C275.844 285.416 275.861 285.503 275.895 285.565C275.929 285.626 275.977 285.669 276.037 285.693C276.1 285.718 276.172 285.73 276.253 285.73C276.31 285.73 276.367 285.725 276.423 285.716C276.48 285.705 276.524 285.696 276.554 285.69L276.744 286.591C276.684 286.61 276.598 286.631 276.489 286.656C276.379 286.682 276.245 286.698 276.088 286.704C275.797 286.716 275.541 286.677 275.321 286.588C275.104 286.499 274.934 286.361 274.813 286.173C274.692 285.986 274.632 285.749 274.634 285.463V281.237ZM279.394 286.73C278.945 286.73 278.559 286.639 278.235 286.457C277.913 286.273 277.665 286.014 277.491 285.679C277.317 285.342 277.23 284.943 277.23 284.483C277.23 284.035 277.317 283.641 277.491 283.302C277.665 282.963 277.91 282.699 278.227 282.51C278.545 282.32 278.918 282.226 279.346 282.226C279.633 282.226 279.901 282.272 280.149 282.365C280.399 282.456 280.617 282.593 280.802 282.777C280.99 282.96 281.136 283.191 281.24 283.47C281.344 283.746 281.396 284.07 281.396 284.441V284.773H277.713V284.023H280.257C280.257 283.849 280.219 283.695 280.144 283.56C280.068 283.426 279.963 283.321 279.828 283.245C279.696 283.168 279.542 283.129 279.365 283.129C279.182 283.129 279.019 283.171 278.877 283.257C278.737 283.34 278.627 283.453 278.548 283.595C278.468 283.735 278.427 283.891 278.425 284.063V284.776C278.425 284.992 278.465 285.178 278.545 285.335C278.626 285.492 278.741 285.614 278.888 285.699C279.036 285.784 279.211 285.827 279.414 285.827C279.548 285.827 279.671 285.808 279.783 285.77C279.895 285.732 279.99 285.675 280.07 285.599C280.149 285.524 280.21 285.431 280.251 285.321L281.37 285.395C281.314 285.664 281.197 285.899 281.021 286.099C280.847 286.298 280.622 286.453 280.345 286.565C280.071 286.675 279.754 286.73 279.394 286.73ZM282.185 286.645V282.282H283.358V283.044H283.404C283.483 282.773 283.617 282.568 283.804 282.43C283.992 282.29 284.207 282.22 284.452 282.22C284.512 282.22 284.578 282.224 284.648 282.231C284.718 282.239 284.779 282.249 284.832 282.263V283.336C284.775 283.319 284.697 283.304 284.597 283.291C284.496 283.277 284.404 283.271 284.321 283.271C284.143 283.271 283.984 283.31 283.844 283.387C283.706 283.463 283.596 283.569 283.515 283.705C283.435 283.842 283.395 283.999 283.395 284.177V286.645H282.185ZM285.458 286.645V282.282H286.667V286.645H285.458ZM286.065 281.72C285.886 281.72 285.731 281.661 285.603 281.541C285.476 281.42 285.412 281.275 285.412 281.107C285.412 280.94 285.476 280.797 285.603 280.678C285.731 280.557 285.886 280.496 286.065 280.496C286.245 280.496 286.399 280.557 286.525 280.678C286.654 280.797 286.719 280.94 286.719 281.107C286.719 281.275 286.654 281.42 286.525 281.541C286.399 281.661 286.245 281.72 286.065 281.72ZM288.88 286.727C288.602 286.727 288.354 286.679 288.136 286.582C287.919 286.484 287.746 286.339 287.62 286.148C287.495 285.954 287.432 285.714 287.432 285.426C287.432 285.184 287.477 284.98 287.566 284.816C287.655 284.651 287.776 284.518 287.929 284.418C288.082 284.318 288.257 284.242 288.452 284.191C288.649 284.14 288.855 284.104 289.071 284.083C289.324 284.056 289.529 284.032 289.684 284.009C289.839 283.985 289.952 283.949 290.022 283.901C290.092 283.854 290.127 283.784 290.127 283.691V283.674C290.127 283.494 290.07 283.355 289.957 283.257C289.845 283.158 289.686 283.109 289.48 283.109C289.262 283.109 289.089 283.157 288.96 283.254C288.831 283.348 288.746 283.468 288.704 283.612L287.585 283.521C287.642 283.256 287.754 283.027 287.921 282.833C288.087 282.638 288.302 282.489 288.565 282.385C288.83 282.279 289.137 282.226 289.485 282.226C289.728 282.226 289.96 282.254 290.181 282.311C290.405 282.368 290.602 282.456 290.775 282.575C290.949 282.694 291.086 282.848 291.186 283.035C291.287 283.221 291.337 283.443 291.337 283.702V286.645H290.19V286.04H290.156C290.085 286.176 289.992 286.296 289.874 286.4C289.757 286.503 289.616 286.583 289.451 286.642C289.287 286.698 289.096 286.727 288.88 286.727ZM289.227 285.892C289.405 285.892 289.562 285.857 289.698 285.787C289.835 285.715 289.942 285.618 290.019 285.497C290.097 285.376 290.136 285.239 290.136 285.085V284.623C290.098 284.647 290.046 284.67 289.979 284.691C289.915 284.71 289.842 284.728 289.761 284.745C289.679 284.76 289.598 284.774 289.517 284.787C289.435 284.799 289.361 284.809 289.295 284.818C289.153 284.839 289.029 284.872 288.923 284.918C288.817 284.963 288.735 285.025 288.676 285.102C288.617 285.178 288.588 285.273 288.588 285.386C288.588 285.551 288.648 285.677 288.767 285.764C288.888 285.849 289.041 285.892 289.227 285.892ZM293.485 280.828V286.645H292.276V280.828H293.485Z" fill="#3A2E1F"/>
<path d="M250.308 206.309H281C284.143 206.309 286.691 208.857 286.691 212V248C286.691 251.143 284.143 253.691 281 253.691H250.308V206.309Z" stroke="black" stroke-width="0.617284"/>
<circle cx="256" cy="212.5" r="0.5" fill="#0D0D0D"/>
<circle cx="261" cy="212.5" r="0.5" fill="#0D0D0D"/>
<circle cx="266" cy="212.5" r="0.5" fill="#0D0D0D"/>
<circle cx="271" cy="212.5" r="0.5" fill="#0D0D0D"/>
<circle cx="276" cy="212.5" r="0.5" fill="#0D0D0D"/>
<circle cx="281" cy="212.5" r="0.5" fill="#0D0D0D"/>
<circle cx="256" cy="217.5" r="0.5" fill="#0D0D0D"/>
<circle cx="261" cy="217.5" r="0.5" fill="#0D0D0D"/>
<circle cx="266" cy="217.5" r="0.5" fill="#0D0D0D"/>
<circle cx="271" cy="217.5" r="0.5" fill="#0D0D0D"/>
<circle cx="276" cy="217.5" r="0.5" fill="#0D0D0D"/>
<circle cx="281" cy="217.5" r="0.5" fill="#0D0D0D"/>
<circle cx="256" cy="222.5" r="0.5" fill="#0D0D0D"/>
<circle cx="261" cy="222.5" r="0.5" fill="#0D0D0D"/>
<circle cx="266" cy="222.5" r="0.5" fill="#0D0D0D"/>
<circle cx="271" cy="222.5" r="0.5" fill="#0D0D0D"/>
<circle cx="276" cy="222.5" r="0.5" fill="#0D0D0D"/>
<circle cx="281" cy="222.5" r="0.5" fill="#0D0D0D"/>
<circle cx="256" cy="227.5" r="0.5" fill="#0D0D0D"/>
<circle cx="261" cy="227.5" r="0.5" fill="#0D0D0D"/>
<circle cx="266" cy="227.5" r="0.5" fill="#0D0D0D"/>
<circle cx="271" cy="227.5" r="0.5" fill="#0D0D0D"/>
<circle cx="276" cy="227.5" r="0.5" fill="#0D0D0D"/>
<circle cx="281" cy="227.5" r="0.5" fill="#0D0D0D"/>
<circle cx="256" cy="232.5" r="0.5" fill="#0D0D0D"/>
<circle cx="261" cy="232.5" r="0.5" fill="#0D0D0D"/>
<circle cx="266" cy="232.5" r="0.5" fill="#0D0D0D"/>
<circle cx="271" cy="232.5" r="0.5" fill="#0D0D0D"/>
<circle cx="276" cy="232.5" r="0.5" fill="#0D0D0D"/>
<circle cx="281" cy="232.5" r="0.5" fill="#0D0D0D"/>
<circle cx="256" cy="237.5" r="0.5" fill="#0D0D0D"/>
<circle cx="261" cy="237.5" r="0.5" fill="#0D0D0D"/>
<circle cx="266" cy="237.5" r="0.5" fill="#0D0D0D"/>
<circle cx="271" cy="237.5" r="0.5" fill="#0D0D0D"/>
<circle cx="276" cy="237.5" r="0.5" fill="#0D0D0D"/>
<circle cx="281" cy="237.5" r="0.5" fill="#0D0D0D"/>
<circle cx="256" cy="242.5" r="0.5" fill="#0D0D0D"/>
<circle cx="261" cy="242.5" r="0.5" fill="#0D0D0D"/>
<circle cx="266" cy="242.5" r="0.5" fill="#0D0D0D"/>
<circle cx="271" cy="242.5" r="0.5" fill="#0D0D0D"/>
<circle cx="276" cy="242.5" r="0.5" fill="#0D0D0D"/>
<circle cx="281" cy="242.5" r="0.5" fill="#0D0D0D"/>
<circle cx="256" cy="247.5" r="0.5" fill="#0D0D0D"/>
<circle cx="261" cy="247.5" r="0.5" fill="#0D0D0D"/>
<circle cx="266" cy="247.5" r="0.5" fill="#0D0D0D"/>
<circle cx="271" cy="247.5" r="0.5" fill="#0D0D0D"/>
<circle cx="276" cy="247.5" r="0.5" fill="#0D0D0D"/>
<circle cx="281" cy="247.5" r="0.5" fill="#0D0D0D"/>
</g>
</g>
<defs>
<filter id="filter0_ii_1319_1917" x="7.04675" y="32.5125" width="8.45569" height="466.479" filterUnits="userSpaceOnUse" color-interpolation-filters="sRGB">
<feFlood flood-opacity="0" result="BackgroundImageFix"/>
<feBlend mode="normal" in="SourceGraphic" in2="BackgroundImageFix" result="shape"/>
<feColorMatrix in="SourceAlpha" type="matrix" values="0 0 0 0 0 0 0 0 0 0 0 0 0 0 0 0 0 0 127 0" result="hardAlpha"/>
<feOffset dx="-1.4093"/>
<feGaussianBlur stdDeviation="2.11395"/>
<feComposite in2="hardAlpha" operator="arithmetic" k2="-1" k3="1"/>
<feColorMatrix type="matrix" values="0 0 0 0 0 0 0 0 0 0 0 0 0 0 0 0 0 0 0.18 0"/>
<feBlend mode="normal" in2="shape" result="effect1_innerShadow_1319_1917"/>
<feColorMatrix in="SourceAlpha" type="matrix" values="0 0 0 0 0 0 0 0 0 0 0 0 0 0 0 0 0 0 127 0" result="hardAlpha"/>
<feOffset dx="-1.4093"/>
<feGaussianBlur stdDeviation="2.11395"/>
<feComposite in2="hardAlpha" operator="arithmetic" k2="-1" k3="1"/>
<feColorMatrix type="matrix" values="0 0 0 0 0 0 0 0 0 0 0 0 0 0 0 0 0 0 0.18 0"/>
<feBlend mode="normal" in2="effect1_innerShadow_1319_1917" result="effect2_innerShadow_1319_1917"/>
</filter>
<filter id="filter1_d_1319_1917" x="-18.66" y="185.345" width="350.094" height="118.179" filterUnits="userSpaceOnUse" color-interpolation-filters="sRGB">
<feFlood flood-opacity="0" result="BackgroundImageFix"/>
<feColorMatrix in="SourceAlpha" type="matrix" values="0 0 0 0 0 0 0 0 0 0 0 0 0 0 0 0 0 0 127 0" result="hardAlpha"/>
<feOffset dy="-4.44282"/>
<feGaussianBlur stdDeviation="2.66569"/>
<feComposite in2="hardAlpha" operator="out"/>
<feColorMatrix type="matrix" values="0 0 0 0 0.00416667 0 0 0 0 0.00416667 0 0 0 0 0.00416667 0 0 0 0.25 0"/>
<feBlend mode="normal" in2="BackgroundImageFix" result="effect1_dropShadow_1319_1917"/>
<feBlend mode="normal" in="SourceGraphic" in2="effect1_dropShadow_1319_1917" result="shape"/>
</filter>
<clipPath id="clip0_1319_1917">
<path d="M0 37.8438C0 34.8994 2.38694 32.5125 5.33138 32.5125H271.012C288.678 32.5125 303 46.8341 303 64.5007V465.594C303 483.261 288.678 497.582 271.012 497.582H5.33139C2.38695 497.582 0 495.195 0 492.251V37.8438Z" fill="white"/>
</clipPath>
</defs>
</svg>
